<svg width="197" height="65" viewBox="0 0 197 65" fill="none" xmlns="http://www.w3.org/2000/svg">
<path d="M58.1777 0H105.625V47.4877H58.1777V0ZM104.787 0.969098H59.016V46.5186H104.787V0.969098Z" fill="#D8D8D8"/>
<path d="M116.02 41.0266C117.696 41.0266 119.205 42.4803 119.205 44.2571C119.205 46.0338 117.864 47.4875 116.02 47.4875V46.5184C117.361 46.5184 118.367 45.5493 118.367 44.2571C118.367 42.9649 117.361 41.9958 116.02 41.9958V41.0266Z" fill="#D8D8D8"/>
<path d="M124.066 41.0266C125.911 41.0266 127.252 42.4803 127.252 44.2571C127.252 46.0338 125.743 47.4875 124.066 47.4875C122.222 47.4875 120.881 46.0338 120.881 44.2571C120.881 42.4803 122.39 41.0266 124.066 41.0266ZM124.066 41.8342C122.725 41.8342 121.719 42.8034 121.719 44.0956C121.719 45.3878 122.725 46.3569 124.066 46.3569C125.408 46.3569 126.414 45.3878 126.414 44.0956C126.414 42.9649 125.408 41.8342 124.066 41.8342Z" fill="#D8D8D8"/>
<path d="M168.663 47.4878C164.975 47.4878 161.789 44.4189 161.789 40.7039C161.789 36.9889 164.807 33.9199 168.663 33.9199V34.889C165.31 34.889 162.795 37.4734 162.795 40.8654C162.795 44.0958 165.478 46.8417 168.663 46.8417V47.4878Z" fill="#D8D8D8"/>
<path d="M153.742 39.0886C156.089 39.0886 157.934 41.0269 157.934 43.2882C157.934 45.5495 156.089 47.4877 153.742 47.4877C151.395 47.4877 149.551 45.5495 149.551 43.2882C149.551 41.0269 151.563 39.0886 153.742 39.0886ZM153.742 40.0577C151.898 40.0577 150.389 41.5114 150.389 43.2882C150.389 45.0649 151.898 46.5186 153.742 46.5186C155.586 46.5186 157.095 45.0649 157.095 43.2882C157.095 41.5114 155.586 40.0577 153.742 40.0577Z" fill="#D8D8D8"/>
<path d="M113.505 0C117.193 0 120.379 3.06895 120.379 6.78398C120.379 10.499 117.361 13.5679 113.505 13.5679V12.5988C116.858 12.5988 119.373 10.0144 119.373 6.6224C119.373 3.39194 116.69 0.646081 113.505 0.646081V0Z" fill="#D8D8D8"/>
<path d="M167.825 13.7296C164.137 13.7296 160.951 10.6606 160.951 6.9456C160.951 3.23058 163.969 0.161621 167.825 0.161621V1.13077C164.472 1.13077 161.957 3.7151 161.957 7.10708C161.957 10.3375 164.64 13.0834 167.825 13.0834V13.7296Z" fill="#D8D8D8"/>
<path d="M116.522 0H163.97V47.4877H116.522V0ZM163.131 0.969098H117.361V46.5186H163.131V0.969098Z" fill="#D8D8D8"/>
<path d="M140.33 0C153.407 0 164.137 10.6605 164.137 23.7439C164.137 36.8272 153.575 47.4877 140.33 47.4877C127.253 47.4877 116.522 36.8272 116.522 23.7439C116.522 10.6605 127.085 0 140.33 0ZM140.33 0.969098C127.756 0.969098 117.528 11.1451 117.528 23.7439C117.528 36.3427 127.756 46.5186 140.33 46.5186C152.904 46.5186 163.131 36.3427 163.131 23.7439C163.131 11.1451 152.904 0.969098 140.33 0.969098Z" fill="#D8D8D8"/>
<path d="M116.689 46.6802L163.298 0.161621L163.801 0.807752L117.36 47.3263L116.689 46.6802Z" fill="#D8D8D8"/>
<path d="M117.36 0.161621L163.801 46.6802L163.298 47.3263L116.689 0.807752L117.36 0.161621Z" fill="#D8D8D8"/>
<path d="M163.633 23.259H117.024V24.2282H163.633V23.259Z" fill="#D8D8D8"/>
<path d="M140.664 0.484863H139.826V47.0034H140.664V0.484863Z" fill="#D8D8D8"/>
<path d="M120.545 11.6301H117.024V12.5992H120.545V11.6301Z" fill="#D8D8D8"/>
<path d="M127.586 11.6301H124.065V12.5992H127.586V11.6301Z" fill="#D8D8D8"/>
<path d="M134.796 11.6301H131.275V12.5992H134.796V11.6301Z" fill="#D8D8D8"/>
<path d="M142.005 11.6301H138.484V12.5992H142.005V11.6301Z" fill="#D8D8D8"/>
<path d="M149.216 11.6301H145.695V12.5992H149.216V11.6301Z" fill="#D8D8D8"/>
<path d="M156.255 11.6301H152.734V12.5992H156.255V11.6301Z" fill="#D8D8D8"/>
<path d="M163.467 11.6301H159.946V12.5992H163.467V11.6301Z" fill="#D8D8D8"/>
<path d="M120.545 34.8889H117.024V35.8581H120.545V34.8889Z" fill="#D8D8D8"/>
<path d="M127.586 34.8889H124.065V35.8581H127.586V34.8889Z" fill="#D8D8D8"/>
<path d="M134.796 34.8889H131.275V35.8581H134.796V34.8889Z" fill="#D8D8D8"/>
<path d="M142.005 34.8889H138.484V35.8581H142.005V34.8889Z" fill="#D8D8D8"/>
<path d="M149.216 34.8889H145.695V35.8581H149.216V34.8889Z" fill="#D8D8D8"/>
<path d="M156.255 34.8889H152.734V35.8581H156.255V34.8889Z" fill="#D8D8D8"/>
<path d="M163.467 34.8889H159.946V35.8581H163.467V34.8889Z" fill="#D8D8D8"/>
<path d="M128.928 43.4495H128.09V47.003H128.928V43.4495Z" fill="#D8D8D8"/>
<path d="M128.928 36.3428H128.09V39.8963H128.928V36.3428Z" fill="#D8D8D8"/>
<path d="M128.928 29.074H128.09V32.6275H128.928V29.074Z" fill="#D8D8D8"/>
<path d="M128.928 21.9675H128.09V25.5211H128.928V21.9675Z" fill="#D8D8D8"/>
<path d="M128.928 14.8604H128.09V18.4138H128.928V14.8604Z" fill="#D8D8D8"/>
<path d="M128.928 7.5918H128.09V11.1452H128.928V7.5918Z" fill="#D8D8D8"/>
<path d="M128.928 0.484863H128.09V4.03839H128.928V0.484863Z" fill="#D8D8D8"/>
<path d="M152.233 43.4495H151.395V47.003H152.233V43.4495Z" fill="#D8D8D8"/>
<path d="M152.233 36.3428H151.395V39.8963H152.233V36.3428Z" fill="#D8D8D8"/>
<path d="M152.233 29.074H151.395V32.6275H152.233V29.074Z" fill="#D8D8D8"/>
<path d="M152.233 21.9675H151.395V25.5211H152.233V21.9675Z" fill="#D8D8D8"/>
<path d="M152.233 14.8604H151.395V18.4138H152.233V14.8604Z" fill="#D8D8D8"/>
<path d="M152.233 7.5918H151.395V11.1452H152.233V7.5918Z" fill="#D8D8D8"/>
<path d="M152.233 0.484863H151.395V4.03839H152.233V0.484863Z" fill="#D8D8D8"/>
<path d="M82.1521 0C95.2294 0 105.96 10.6605 105.96 23.7439C105.96 36.8272 95.3971 47.4877 82.1521 47.4877C69.0748 47.4877 58.3447 36.8272 58.3447 23.7439C58.3447 10.6605 68.9072 0 82.1521 0ZM82.1521 0.969098C69.5778 0.969098 59.3507 11.1451 59.3507 23.7439C59.3507 36.3427 69.5778 46.5186 82.1521 46.5186C94.7264 46.5186 104.954 36.3427 104.954 23.7439C104.954 11.1451 94.7264 0.969098 82.1521 0.969098Z" fill="#D8D8D8"/>
<path d="M58.5137 46.6802L105.123 0.161621L105.625 0.807752L59.0167 47.3263L58.5137 46.6802Z" fill="#D8D8D8"/>
<path d="M59.0167 0.161621L105.625 46.6802L105.123 47.3263L58.5137 0.807752L59.0167 0.161621Z" fill="#D8D8D8"/>
<path d="M105.455 23.259H58.8467V24.2282H105.455V23.259Z" fill="#D8D8D8"/>
<path d="M82.4877 0.484863H81.6494V47.0034H82.4877V0.484863Z" fill="#D8D8D8"/>
<path d="M62.3675 11.6301H58.8467V12.5992H62.3675V11.6301Z" fill="#D8D8D8"/>
<path d="M69.4105 11.6301H65.8896V12.5992H69.4105V11.6301Z" fill="#D8D8D8"/>
<path d="M76.6195 11.6301H73.0986V12.5992H76.6195V11.6301Z" fill="#D8D8D8"/>
<path d="M83.8294 11.6301H80.3086V12.5992H83.8294V11.6301Z" fill="#D8D8D8"/>
<path d="M90.8695 11.6301H87.3486V12.5992H90.8695V11.6301Z" fill="#D8D8D8"/>
<path d="M98.0804 11.6301H94.5596V12.5992H98.0804V11.6301Z" fill="#D8D8D8"/>
<path d="M105.289 11.6301H101.769V12.5992H105.289V11.6301Z" fill="#D8D8D8"/>
<path d="M62.3675 34.8889H58.8467V35.8581H62.3675V34.8889Z" fill="#D8D8D8"/>
<path d="M69.4105 34.8889H65.8896V35.8581H69.4105V34.8889Z" fill="#D8D8D8"/>
<path d="M76.6195 34.8889H73.0986V35.8581H76.6195V34.8889Z" fill="#D8D8D8"/>
<path d="M83.8294 34.8889H80.3086V35.8581H83.8294V34.8889Z" fill="#D8D8D8"/>
<path d="M90.8695 34.8889H87.3486V35.8581H90.8695V34.8889Z" fill="#D8D8D8"/>
<path d="M98.0804 34.8889H94.5596V35.8581H98.0804V34.8889Z" fill="#D8D8D8"/>
<path d="M105.289 34.8889H101.769V35.8581H105.289V34.8889Z" fill="#D8D8D8"/>
<path d="M94.0551 43.4495H93.2168V47.003H94.0551V43.4495Z" fill="#D8D8D8"/>
<path d="M94.0551 36.3428H93.2168V39.8963H94.0551V36.3428Z" fill="#D8D8D8"/>
<path d="M94.0551 29.074H93.2168V32.6275H94.0551V29.074Z" fill="#D8D8D8"/>
<path d="M94.0551 21.9675H93.2168V25.5211H94.0551V21.9675Z" fill="#D8D8D8"/>
<path d="M94.0551 14.8604H93.2168V18.4138H94.0551V14.8604Z" fill="#D8D8D8"/>
<path d="M94.0551 7.5918H93.2168V11.1452H94.0551V7.5918Z" fill="#D8D8D8"/>
<path d="M94.0551 0.484863H93.2168V4.03839H94.0551V0.484863Z" fill="#D8D8D8"/>
<path d="M62.3685 0C64.5481 0 66.3923 1.77675 66.3923 4.03807C66.3923 6.29939 64.5481 8.07614 62.3685 8.07614C60.189 8.07614 58.3447 6.29939 58.3447 4.03807C58.3447 1.77675 60.189 0 62.3685 0ZM62.3685 0.969098C60.692 0.969098 59.183 2.42284 59.183 4.03807C59.183 5.81482 60.5243 7.10695 62.3685 7.10695C64.0451 7.10695 65.554 5.6533 65.554 4.03807C65.3864 2.26132 64.0451 0.969098 62.3685 0.969098Z" fill="#D8D8D8"/>
<path d="M62.3685 39.4116C64.5481 39.4116 66.3923 41.1884 66.3923 43.4497C66.3923 45.711 64.5481 47.4878 62.3685 47.4878C60.189 47.4878 58.3447 45.711 58.3447 43.4497C58.3447 41.1884 60.189 39.4116 62.3685 39.4116ZM62.3685 40.3808C60.692 40.3808 59.183 41.8345 59.183 43.4497C59.183 45.2264 60.5243 46.5187 62.3685 46.5187C64.0451 46.5187 65.554 45.0649 65.554 43.4497C65.554 41.6729 64.0451 40.3808 62.3685 40.3808Z" fill="#D8D8D8"/>
<path d="M74.7757 39.4116C76.9553 39.4116 78.7995 41.1884 78.7995 43.4497C78.7995 45.711 76.9553 47.4878 74.7757 47.4878C72.5962 47.4878 70.752 45.711 70.752 43.4497C70.752 41.1884 72.5962 39.4116 74.7757 39.4116ZM74.7757 40.3808C73.0991 40.3808 71.5902 41.8345 71.5902 43.4497C71.5902 45.2264 72.9315 46.5187 74.7757 46.5187C76.4523 46.5187 77.9612 45.0649 77.9612 43.4497C77.9612 41.6729 76.62 40.3808 74.7757 40.3808Z" fill="#D8D8D8"/>
<path d="M0 0H47.4471V47.4877H0V0ZM46.6088 0.969098H0.838288V46.5186H46.6088V0.969098Z" fill="#D8D8D8"/>
<path d="M23.8074 0C36.8847 0 47.6147 10.6605 47.6147 23.7439C47.6147 36.8272 37.0523 47.4877 23.8074 47.4877C10.7301 47.4877 0 36.8272 0 23.7439C0 10.6605 10.5624 0 23.8074 0ZM23.8074 0.969098C11.2331 0.969098 1.00596 11.1451 1.00596 23.7439C1.00596 36.3427 11.2331 46.5186 23.8074 46.5186C36.3817 46.5186 46.6088 36.3427 46.6088 23.7439C46.6088 11.1451 36.3817 0.969098 23.8074 0.969098Z" fill="#D8D8D8"/>
<path d="M0.166992 46.6802L46.7758 0.161621L47.2788 0.807752L0.669944 47.3263L0.166992 46.6802Z" fill="#D8D8D8"/>
<path d="M0.669944 0.161621L47.2788 46.6802L46.7758 47.3263L0.166992 0.807752L0.669944 0.161621Z" fill="#D8D8D8"/>
<path d="M47.1118 23.259H0.50293V24.2282H47.1118V23.259Z" fill="#D8D8D8"/>
<path d="M24.143 0.484863H23.3047V47.0034H24.143V0.484863Z" fill="#D8D8D8"/>
<path d="M4.02375 11.6301H0.50293V12.5992H4.02375V11.6301Z" fill="#D8D8D8"/>
<path d="M11.0657 11.6301H7.54492V12.5992H11.0657V11.6301Z" fill="#D8D8D8"/>
<path d="M18.2747 11.6301H14.7539V12.5992H18.2747V11.6301Z" fill="#D8D8D8"/>
<path d="M25.4837 11.6301H21.9629V12.5992H25.4837V11.6301Z" fill="#D8D8D8"/>
<path d="M32.5247 11.6301H29.0039V12.5992H32.5247V11.6301Z" fill="#D8D8D8"/>
<path d="M39.7347 11.6301H36.2139V12.5992H39.7347V11.6301Z" fill="#D8D8D8"/>
<path d="M46.9446 11.6301H43.4238V12.5992H46.9446V11.6301Z" fill="#D8D8D8"/>
<path d="M4.02375 34.8889H0.50293V35.8581H4.02375V34.8889Z" fill="#D8D8D8"/>
<path d="M11.0657 34.8889H7.54492V35.8581H11.0657V34.8889Z" fill="#D8D8D8"/>
<path d="M18.2747 34.8889H14.7539V35.8581H18.2747V34.8889Z" fill="#D8D8D8"/>
<path d="M25.4837 34.8889H21.9629V35.8581H25.4837V34.8889Z" fill="#D8D8D8"/>
<path d="M32.5247 34.8889H29.0039V35.8581H32.5247V34.8889Z" fill="#D8D8D8"/>
<path d="M39.7347 34.8889H36.2139V35.8581H39.7347V34.8889Z" fill="#D8D8D8"/>
<path d="M46.9446 34.8889H43.4238V35.8581H46.9446V34.8889Z" fill="#D8D8D8"/>
<path d="M12.4076 43.4495H11.5693V47.003H12.4076V43.4495Z" fill="#D8D8D8"/>
<path d="M12.4076 36.3428H11.5693V39.8963H12.4076V36.3428Z" fill="#D8D8D8"/>
<path d="M12.4076 29.074H11.5693V32.6275H12.4076V29.074Z" fill="#D8D8D8"/>
<path d="M12.4076 21.9675H11.5693V25.5211H12.4076V21.9675Z" fill="#D8D8D8"/>
<path d="M12.4076 14.8604H11.5693V18.4138H12.4076V14.8604Z" fill="#D8D8D8"/>
<path d="M12.4076 7.5918H11.5693V11.1452H12.4076V7.5918Z" fill="#D8D8D8"/>
<path d="M12.4076 0.484863H11.5693V4.03839H12.4076V0.484863Z" fill="#D8D8D8"/>
<path d="M35.7104 43.4495H34.8721V47.003H35.7104V43.4495Z" fill="#D8D8D8"/>
<path d="M35.7104 36.3428H34.8721V39.8963H35.7104V36.3428Z" fill="#D8D8D8"/>
<path d="M35.7104 29.074H34.8721V32.6275H35.7104V29.074Z" fill="#D8D8D8"/>
<path d="M35.7104 21.9675H34.8721V25.5211H35.7104V21.9675Z" fill="#D8D8D8"/>
<path d="M35.7104 14.8604H34.8721V18.4138H35.7104V14.8604Z" fill="#D8D8D8"/>
<path d="M35.7104 7.5918H34.8721V11.1452H35.7104V7.5918Z" fill="#D8D8D8"/>
<path d="M35.7104 0.484863H34.8721V4.03839H35.7104V0.484863Z" fill="#D8D8D8"/>
<path d="M155.754 13.8909L140.33 47.9723L123.061 12.2757L122.055 43.9342C122.055 45.3879 123.061 46.357 124.402 46.5186V47.4877H116.019V46.5186C116.019 46.5186 116.187 46.5186 116.355 46.5186C117.528 46.1955 118.534 45.3879 118.534 44.0957C118.534 44.0957 119.708 9.04522 119.708 7.10695C119.708 3.87649 117.528 1.29214 114.343 0.969098V0H123.396L141.671 37.1503L158.604 0H167.658V0.969098C167.658 0.969098 167.323 0.969107 166.82 1.13063C163.802 1.93824 161.958 3.87655 161.958 7.26853C161.958 13.4064 162.796 33.4352 162.963 40.2191C162.963 43.4496 164.64 45.8725 167.826 46.5186C168.328 46.6801 168.664 46.68 168.664 46.68V47.6492H154.581L154.413 46.8416C154.413 46.8416 154.581 46.8416 154.916 46.68C156.257 46.0339 157.263 45.0648 157.263 43.4496C157.263 40.7037 156.089 20.1903 155.754 13.8909Z" fill="black"/>
<path d="M124.234 64.1248V55.7256H122.557L120.378 60.2482L118.198 55.7256H116.689V64.1248H118.198V59.2791L119.875 62.348H121.049L122.557 59.2791V64.1248H124.234Z" fill="black"/>
<path d="M132.617 64.1248L129.599 55.7256H128.258L125.24 64.1248H126.917L127.42 62.671H130.438L130.941 64.1248H132.617ZM130.102 61.2173H128.09L129.096 58.1484L130.102 61.2173Z" fill="black"/>
<path d="M138.486 57.1792V55.7256H132.45V57.1792H134.63V64.1248H136.306V57.1792H138.486Z" fill="black"/>
<path d="M145.359 64.1248V62.671H141.335V60.5713H144.688V59.1175H141.335V57.1792H145.359V55.7256H139.826V64.1248H145.359Z" fill="black"/>
<path d="M154.579 64.1248V55.7256H152.903L150.723 60.2482L148.544 55.7256H146.867V64.1248H148.544V59.2791L150.22 62.348H151.226L152.903 59.2791V64.1248H154.579Z" fill="black"/>
<path d="M159.944 54.918L159.106 52.9797H157.429L158.77 54.918H159.944ZM162.962 64.1249L159.944 55.7256H158.603L155.585 64.1249H157.262L157.765 62.6711H160.782L161.285 64.1249H162.962ZM160.279 61.2174H158.267L159.273 58.1485L160.279 61.2174Z" fill="black"/>
<path d="M168.664 57.1792V55.7256H162.628V57.1792H164.975V64.1248H166.484V57.1792H168.664Z" fill="black"/>
<path d="M171.682 55.7256H170.006V64.1248H171.682V55.7256Z" fill="black"/>
<path d="M179.563 61.5402H177.886C177.718 62.1863 177.215 62.6709 176.545 62.6709C176.042 62.6709 175.707 62.5094 175.539 62.1863C175.204 61.8633 175.204 61.3787 175.204 59.7635C175.204 58.1483 175.371 57.8252 175.539 57.3406C175.707 57.0176 176.21 56.8561 176.545 56.8561C177.383 56.8561 177.718 57.3406 177.886 57.9867H179.563C179.227 56.2099 178.054 55.4023 176.545 55.4023C175.539 55.4023 174.868 55.7253 174.198 56.3714C173.359 57.1791 173.359 58.3098 173.359 59.7635C173.359 61.2172 173.359 62.1863 174.198 63.1554C174.868 63.8015 175.539 64.1246 176.545 64.1246C178.054 64.1246 179.227 63.3169 179.563 61.5402Z" fill="black"/>
<path d="M187.442 64.1248L184.425 55.7256H183.083L180.065 64.1248H181.742L182.245 62.671H185.263L185.766 64.1248H187.442ZM184.76 61.2173H182.748L183.754 58.1484L184.76 61.2173Z" fill="black"/>
<path d="M185.765 6.6224H187.106C187.777 6.6224 188.448 6.94546 188.448 7.75308C188.448 8.72221 187.777 9.04524 186.771 9.04524H185.597V6.6224H185.765ZM186.771 11.9526C187.945 11.7911 188.448 13.2449 188.448 14.5371C188.448 15.6677 188.615 15.8292 188.615 15.9907H192.471V15.8292C192.471 15.8292 192.136 15.3447 191.968 13.7294C191.801 11.1451 190.795 10.4989 189.789 10.3374C190.962 9.85283 192.136 9.36828 192.136 7.43001C192.136 4.84565 190.627 3.71501 187.274 3.71501H182.077V16.3138H185.765V12.1142H186.771V11.9526ZM177.55 0H196.998V19.5442C196.998 19.5442 197.333 27.9434 187.274 31.497C187.106 31.497 182.915 26.3282 182.915 26.3282C182.915 26.3282 189.118 23.9053 188.615 19.5442H177.55V0V0Z" fill="#EC751A"/>
<path d="M77.9607 3.39194C76.7871 3.39194 73.0986 3.39194 71.925 3.39194V22.1286H77.29C80.3079 21.9671 81.6491 21.321 83.8287 19.3827C85.6729 17.606 86.6789 15.5061 86.6789 12.7602C86.5112 6.29933 82.1521 3.55346 77.9607 3.39194ZM63.8774 46.034C64.5481 45.5494 65.3864 44.7418 65.3864 43.1266C65.3864 43.1266 65.3864 5.65329 65.3864 3.87654C65.3864 2.09979 63.8775 1.13062 62.3685 0.969098V0H76.2841C80.1402 0 84.8346 0.323006 88.1878 2.58433C90.032 3.87651 92.8822 7.10696 92.8822 13.0833C92.8822 18.7366 89.3614 23.0977 84.3316 25.1975C89.529 31.6584 94.7264 36.5041 98.0796 40.2191C100.762 42.965 103.612 45.2264 106.63 47.3262H104.115C99.2532 47.1646 93.7205 43.9342 91.7086 41.9959C89.3614 39.4116 77.4577 26.8128 76.1164 25.3591H71.422V42.965C71.422 46.357 74.4399 46.5186 74.4399 46.5186V47.4877H62.0332V46.5186C62.0332 46.5186 62.2008 46.5186 62.5362 46.5186C63.2068 46.357 63.5421 46.3571 63.8774 46.034Z" fill="#8F002E"/>
<path d="M5.86734 61.5404H4.69372C4.52606 62.348 3.85543 62.9941 3.01714 62.9941C2.51417 62.9941 2.17888 62.8326 1.84357 62.5096C1.50825 62.025 1.34056 61.5404 1.34056 59.9251C1.34056 58.3099 1.50825 57.8254 1.84357 57.3408C2.17888 57.0178 2.51417 56.8563 3.01714 56.8563C3.85543 56.8563 4.52606 57.5023 4.69372 58.3099H6.03501C5.69969 56.6947 4.69373 55.7256 3.18481 55.7256C2.34652 55.7256 1.67591 56.0486 1.00528 56.6947C0.166992 57.5023 0.166992 58.4715 0.166992 60.0867C0.166992 61.702 0.166992 62.671 1.00528 63.4787C1.50825 64.1248 2.34652 64.4478 3.18481 64.4478C4.52607 64.1247 5.69968 63.3171 5.86734 61.5404Z" fill="#8F002E"/>
<path d="M12.7423 64.1248V62.9941H8.71855V60.4097H12.2393V59.2791H8.71855V56.8563H12.7423V55.7256H7.54492V64.1248H12.7423Z" fill="#8F002E"/>
<path d="M20.6213 64.1248V55.7256H19.28V61.5404L15.5915 55.7256H14.418V64.1248H15.7592V58.1484L19.4477 64.1248H20.6213Z" fill="#8F002E"/>
<path d="M27.6632 56.8563V55.7256H21.9629V56.8563H24.3101V64.1248H25.4837V56.8563H27.6632Z" fill="#8F002E"/>
<path d="M35.0409 64.1248L33.1966 60.4097C34.0349 60.0866 34.8732 59.4406 34.8732 58.1484C34.8732 56.6947 33.8673 55.7256 32.3583 55.7256H29.1729V64.1248H30.3465V60.5713H31.8554L33.532 64.1248H35.0409V64.1248ZM33.532 58.1484C33.532 58.956 33.029 59.4406 32.1907 59.4406H30.3465V56.8563H32.1907C33.029 56.8563 33.532 57.3408 33.532 58.1484Z" fill="#8F002E"/>
<path d="M41.9152 64.1248V62.9941H37.8914V60.4097H41.2445V59.2791H37.8914V56.8563H41.9152V55.7256H36.7178V64.1248H41.9152Z" fill="#8F002E"/>
<path d="M52.1405 59.7634C52.1405 58.4712 52.1405 57.3405 51.3022 56.3713C50.7992 55.8868 49.9609 55.5637 49.1226 55.5637H46.2725V63.9629H49.1226C49.9609 63.9629 50.7992 63.6399 51.3022 63.1553C52.1405 62.3477 52.1405 61.0556 52.1405 59.7634ZM50.7992 59.7634C50.7992 60.894 50.7992 61.8631 50.2962 62.3477C49.9609 62.6707 49.458 62.9938 48.955 62.9938H47.446V56.856H48.955C49.458 56.856 49.9609 57.0174 50.2962 57.502C50.7992 57.8251 50.7992 58.6327 50.7992 59.7634Z" fill="#8F002E"/>
<path d="M59.1837 64.1248V62.9941H55.1599V60.4097H58.5131V59.2791H55.1599V56.8563H59.1837V55.7256H53.9863V64.1248H59.1837Z" fill="#8F002E"/>
<path d="M69.578 64.1248L67.7337 60.4097C68.572 60.0866 69.4103 59.4406 69.4103 58.1484C69.4103 56.6947 68.4044 55.7256 66.8954 55.7256H63.71V64.1248H64.8836V60.5713H66.3925L68.0691 64.1248H69.578V64.1248ZM68.0691 58.1484C68.0691 58.956 67.5661 59.4406 66.7278 59.4406H64.8836V56.8563H66.7278C67.5661 56.8563 68.0691 57.3408 68.0691 58.1484Z" fill="#8F002E"/>
<path d="M76.2853 64.1248V62.9941H72.2615V60.4097H75.7823V59.2791H72.2615V56.8563H76.2853V55.7256H71.0879V64.1248H76.2853Z" fill="#8F002E"/>
<path d="M83.4943 61.5404H82.3207C82.1531 62.348 81.4824 62.9941 80.6441 62.9941C80.1412 62.9941 79.8058 62.8326 79.4705 62.5096C79.1352 62.025 78.9676 61.5404 78.9676 59.9251C78.9676 58.3099 79.1352 57.8254 79.4705 57.3408C79.8058 57.0178 80.1412 56.8563 80.6441 56.8563C81.4824 56.8563 82.1531 57.5023 82.3207 58.3099H83.662C83.3266 56.6947 82.3207 55.7256 80.8118 55.7256C79.9735 55.7256 79.3029 56.0486 78.6322 56.6947C77.7939 57.5023 77.7939 58.4715 77.7939 60.0867C77.7939 61.702 77.7939 62.671 78.6322 63.4787C79.1352 64.1248 79.9735 64.4478 80.8118 64.4478C82.1531 64.1247 83.3266 63.3171 83.4943 61.5404Z" fill="#8F002E"/>
<path d="M90.3673 64.1248V62.9941H86.5112V60.4097H89.8644V59.2791H86.5112V56.8563H90.3673V55.7256H85.1699V64.1248H90.3673Z" fill="#8F002E"/>
<path d="M98.0799 64.1248L96.2357 60.4097C97.074 60.0866 97.9123 59.4406 97.9123 58.1484C97.9123 56.6947 96.9063 55.7256 95.3974 55.7256H92.2119V64.1248H93.3855V60.5713H94.8944L96.571 64.1248H98.0799V64.1248ZM96.571 58.1484C96.571 58.956 96.068 59.4406 95.2297 59.4406H93.3855V56.8563H95.2297C96.068 56.8563 96.571 57.3408 96.571 58.1484Z" fill="#8F002E"/>
<path d="M105.121 61.5404H103.948C103.78 62.348 103.109 62.9941 102.271 62.9941C101.768 62.9941 101.433 62.8326 101.097 62.5096C100.762 62.025 100.595 61.5404 100.595 59.9251C100.595 58.3099 100.762 57.8254 101.097 57.3408C101.433 57.0178 101.768 56.8563 102.271 56.8563C103.109 56.8563 103.78 57.5023 103.948 58.3099H105.289C104.954 56.6947 103.948 55.7256 102.439 55.7256C101.6 55.7256 100.93 56.0486 100.259 56.6947C99.4209 57.5023 99.4209 58.4715 99.4209 60.0867C99.4209 61.702 99.4209 62.671 100.259 63.4787C100.762 64.1248 101.6 64.4478 102.439 64.4478C103.78 64.1247 104.954 63.3171 105.121 61.5404Z" fill="#8F002E"/>
<path d="M112.666 64.1248L109.648 55.7256H108.642L105.624 64.1248H106.965L107.468 62.5096H110.654L111.157 64.1248H112.666ZM110.486 61.3789H107.971L109.313 57.6639L110.486 61.3789Z" fill="#8F002E"/>
<path d="M36.214 45.7109C32.3579 46.5186 27.4959 47.4877 23.8074 47.4877C20.1189 47.4877 13.4126 46.3571 7.71226 41.5114C1.67659 36.1811 0 29.2356 0 23.2592C0 19.0596 1.34125 12.1142 7.37692 6.6224C11.9037 2.58433 15.7598 0 23.4721 0C26.9929 0 31.6873 0.969107 34.8728 2.74586C36.8846 3.55347 38.5613 4.3611 40.5731 3.71501L42.2497 11.7911C42.2497 11.7911 38.5612 8.0761 37.8906 7.43001C35.8787 5.49174 31.5196 3.55347 25.9869 3.55347C20.7895 3.55347 17.7717 5.16873 14.7538 7.26853C9.72412 10.6605 6.03568 17.929 6.03568 23.5823C6.03568 37.6348 18.61 44.0957 26.6575 44.0957C32.0226 44.0957 37.3876 41.6729 39.2319 39.8962C40.9084 38.4425 42.4174 36.1811 43.591 34.2429L44.4293 34.5658L43.2556 43.7726C43.4233 43.9342 40.0702 44.9033 36.214 45.7109Z" fill="#8F002E"/>
</svg>
